<svg xmlns="http://www.w3.org/2000/svg" version="1.1" xmlns:xlink="http://www.w3.org/1999/xlink" xmlns:svgjs="http://svgjs.com/svgjs" width="1440" height="1440" preserveAspectRatio="none" viewBox="0 0 1440 1440"><g mask="url(&quot;#SvgjsMask2940&quot;)" fill="none"><rect width="1440" height="1440" x="0" y="0" fill="url(#SvgjsLinearGradient2941)"></rect><use xlink:href="#SvgjsSymbol2948" x="0" y="0"></use><use xlink:href="#SvgjsSymbol2948" x="0" y="720"></use><use xlink:href="#SvgjsSymbol2948" x="720" y="0"></use><use xlink:href="#SvgjsSymbol2948" x="720" y="720"></use></g><defs><mask id="SvgjsMask2940"><rect width="1440" height="1440" fill="#ffffff"></rect></mask><linearGradient x1="0%" y1="0%" x2="100%" y2="100%" gradientUnits="userSpaceOnUse" id="SvgjsLinearGradient2941"><stop stop-color="#0e2a47" offset="0"></stop><stop stop-color="rgba(0, 31, 71, 1)" offset="1"></stop></linearGradient><path d="M-1 0 a1 1 0 1 0 2 0 a1 1 0 1 0 -2 0z" id="SvgjsPath2946"></path><path d="M-3 0 a3 3 0 1 0 6 0 a3 3 0 1 0 -6 0z" id="SvgjsPath2945"></path><path d="M-5 0 a5 5 0 1 0 10 0 a5 5 0 1 0 -10 0z" id="SvgjsPath2943"></path><path d="M2 -2 L-2 2z" id="SvgjsPath2942"></path><path d="M6 -6 L-6 6z" id="SvgjsPath2944"></path><path d="M30 -30 L-30 30z" id="SvgjsPath2947"></path></defs><symbol id="SvgjsSymbol2948"><use xlink:href="#SvgjsPath2942" x="30" y="30" stroke="#1c538e"></use><use xlink:href="#SvgjsPath2943" x="30" y="90" stroke="#1c538e"></use><use xlink:href="#SvgjsPath2943" x="30" y="150" stroke="rgba(229, 184, 14, 1)"></use><use xlink:href="#SvgjsPath2943" x="30" y="210" stroke="rgba(229, 184, 14, 1)"></use><use xlink:href="#SvgjsPath2944" x="30" y="270" stroke="rgba(229, 184, 14, 1)"></use><use xlink:href="#SvgjsPath2944" x="30" y="330" stroke="#1c538e"></use><use xlink:href="#SvgjsPath2944" x="30" y="390" stroke="rgba(229, 184, 14, 1)"></use><use xlink:href="#SvgjsPath2945" x="30" y="450" stroke="#1c538e"></use><use xlink:href="#SvgjsPath2944" x="30" y="510" stroke="rgba(229, 184, 14, 1)"></use><use xlink:href="#SvgjsPath2946" x="30" y="570" stroke="rgba(229, 184, 14, 1)"></use><use xlink:href="#SvgjsPath2942" x="30" y="630" stroke="rgba(229, 184, 14, 1)"></use><use xlink:href="#SvgjsPath2943" x="30" y="690" stroke="#1c538e"></use><use xlink:href="#SvgjsPath2943" x="90" y="30" stroke="rgba(229, 184, 14, 1)"></use><use xlink:href="#SvgjsPath2943" x="90" y="90" stroke="rgba(229, 184, 14, 1)"></use><use xlink:href="#SvgjsPath2942" x="90" y="150" stroke="rgba(229, 184, 14, 1)"></use><use xlink:href="#SvgjsPath2943" x="90" y="210" stroke="rgba(229, 184, 14, 1)"></use><use xlink:href="#SvgjsPath2943" x="90" y="270" stroke="rgba(229, 184, 14, 1)"></use><use xlink:href="#SvgjsPath2942" x="90" y="330" stroke="rgba(229, 184, 14, 1)"></use><use xlink:href="#SvgjsPath2946" x="90" y="390" stroke="#1c538e"></use><use xlink:href="#SvgjsPath2947" x="90" y="450" stroke="#1c538e" stroke-width="3"></use><use xlink:href="#SvgjsPath2942" x="90" y="510" stroke="#1c538e"></use><use xlink:href="#SvgjsPath2944" x="90" y="570" stroke="rgba(229, 184, 14, 1)"></use><use xlink:href="#SvgjsPath2943" x="90" y="630" stroke="#1c538e"></use><use xlink:href="#SvgjsPath2943" x="90" y="690" stroke="rgba(229, 184, 14, 1)"></use><use xlink:href="#SvgjsPath2944" x="150" y="30" stroke="#1c538e"></use><use xlink:href="#SvgjsPath2944" x="150" y="90" stroke="#1c538e"></use><use xlink:href="#SvgjsPath2943" x="150" y="150" stroke="rgba(229, 184, 14, 1)"></use><use xlink:href="#SvgjsPath2943" x="150" y="210" stroke="rgba(229, 184, 14, 1)"></use><use xlink:href="#SvgjsPath2945" x="150" y="270" stroke="rgba(229, 184, 14, 1)"></use><use xlink:href="#SvgjsPath2945" x="150" y="330" stroke="rgba(229, 184, 14, 1)"></use><use xlink:href="#SvgjsPath2947" x="150" y="390" stroke="rgba(229, 184, 14, 1)" stroke-width="3"></use><use xlink:href="#SvgjsPath2944" x="150" y="450" stroke="#1c538e"></use><use xlink:href="#SvgjsPath2946" x="150" y="510" stroke="rgba(229, 184, 14, 1)"></use><use xlink:href="#SvgjsPath2944" x="150" y="570" stroke="#1c538e"></use><use xlink:href="#SvgjsPath2942" x="150" y="630" stroke="rgba(229, 184, 14, 1)"></use><use xlink:href="#SvgjsPath2943" x="150" y="690" stroke="rgba(229, 184, 14, 1)"></use><use xlink:href="#SvgjsPath2946" x="210" y="30" stroke="rgba(229, 184, 14, 1)"></use><use xlink:href="#SvgjsPath2942" x="210" y="90" stroke="rgba(229, 184, 14, 1)"></use><use xlink:href="#SvgjsPath2947" x="210" y="150" stroke="#1c538e" stroke-width="3"></use><use xlink:href="#SvgjsPath2944" x="210" y="210" stroke="#1c538e"></use><use xlink:href="#SvgjsPath2944" x="210" y="270" stroke="#1c538e"></use><use xlink:href="#SvgjsPath2943" x="210" y="330" stroke="#1c538e"></use><use xlink:href="#SvgjsPath2943" x="210" y="390" stroke="rgba(229, 184, 14, 1)"></use><use xlink:href="#SvgjsPath2944" x="210" y="450" stroke="#1c538e"></use><use xlink:href="#SvgjsPath2945" x="210" y="510" stroke="#1c538e"></use><use xlink:href="#SvgjsPath2943" x="210" y="570" stroke="rgba(229, 184, 14, 1)"></use><use xlink:href="#SvgjsPath2945" x="210" y="630" stroke="#1c538e"></use><use xlink:href="#SvgjsPath2942" x="210" y="690" stroke="rgba(229, 184, 14, 1)"></use><use xlink:href="#SvgjsPath2943" x="270" y="30" stroke="rgba(229, 184, 14, 1)"></use><use xlink:href="#SvgjsPath2943" x="270" y="90" stroke="#1c538e"></use><use xlink:href="#SvgjsPath2943" x="270" y="150" stroke="rgba(229, 184, 14, 1)"></use><use xlink:href="#SvgjsPath2945" x="270" y="210" stroke="rgba(229, 184, 14, 1)"></use><use xlink:href="#SvgjsPath2943" x="270" y="270" stroke="rgba(229, 184, 14, 1)"></use><use xlink:href="#SvgjsPath2945" x="270" y="330" stroke="rgba(229, 184, 14, 1)"></use><use xlink:href="#SvgjsPath2943" x="270" y="390" stroke="rgba(229, 184, 14, 1)"></use><use xlink:href="#SvgjsPath2942" x="270" y="450" stroke="#1c538e"></use><use xlink:href="#SvgjsPath2944" x="270" y="510" stroke="#1c538e"></use><use xlink:href="#SvgjsPath2942" x="270" y="570" stroke="rgba(229, 184, 14, 1)"></use><use xlink:href="#SvgjsPath2944" x="270" y="630" stroke="#1c538e"></use><use xlink:href="#SvgjsPath2944" x="270" y="690" stroke="rgba(229, 184, 14, 1)"></use><use xlink:href="#SvgjsPath2943" x="330" y="30" stroke="rgba(229, 184, 14, 1)"></use><use xlink:href="#SvgjsPath2944" x="330" y="90" stroke="rgba(229, 184, 14, 1)"></use><use xlink:href="#SvgjsPath2944" x="330" y="150" stroke="#1c538e"></use><use xlink:href="#SvgjsPath2944" x="330" y="210" stroke="#1c538e"></use><use xlink:href="#SvgjsPath2947" x="330" y="270" stroke="rgba(229, 184, 14, 1)" stroke-width="3"></use><use xlink:href="#SvgjsPath2944" x="330" y="330" stroke="rgba(229, 184, 14, 1)"></use><use xlink:href="#SvgjsPath2943" x="330" y="390" stroke="#1c538e"></use><use xlink:href="#SvgjsPath2946" x="330" y="450" stroke="rgba(229, 184, 14, 1)"></use><use xlink:href="#SvgjsPath2942" x="330" y="510" stroke="rgba(229, 184, 14, 1)"></use><use xlink:href="#SvgjsPath2943" x="330" y="570" stroke="#1c538e"></use><use xlink:href="#SvgjsPath2942" x="330" y="630" stroke="#1c538e"></use><use xlink:href="#SvgjsPath2945" x="330" y="690" stroke="rgba(229, 184, 14, 1)"></use><use xlink:href="#SvgjsPath2944" x="390" y="30" stroke="rgba(229, 184, 14, 1)"></use><use xlink:href="#SvgjsPath2943" x="390" y="90" stroke="rgba(229, 184, 14, 1)"></use><use xlink:href="#SvgjsPath2942" x="390" y="150" stroke="rgba(229, 184, 14, 1)"></use><use xlink:href="#SvgjsPath2944" x="390" y="210" stroke="rgba(229, 184, 14, 1)"></use><use xlink:href="#SvgjsPath2947" x="390" y="270" stroke="#1c538e" stroke-width="3"></use><use xlink:href="#SvgjsPath2944" x="390" y="330" stroke="#1c538e"></use><use xlink:href="#SvgjsPath2943" x="390" y="390" stroke="rgba(229, 184, 14, 1)"></use><use xlink:href="#SvgjsPath2944" x="390" y="450" stroke="#1c538e"></use><use xlink:href="#SvgjsPath2943" x="390" y="510" stroke="rgba(229, 184, 14, 1)"></use><use xlink:href="#SvgjsPath2946" x="390" y="570" stroke="#1c538e"></use><use xlink:href="#SvgjsPath2943" x="390" y="630" stroke="rgba(229, 184, 14, 1)"></use><use xlink:href="#SvgjsPath2943" x="390" y="690" stroke="#1c538e"></use><use xlink:href="#SvgjsPath2943" x="450" y="30" stroke="rgba(229, 184, 14, 1)"></use><use xlink:href="#SvgjsPath2944" x="450" y="90" stroke="#1c538e"></use><use xlink:href="#SvgjsPath2943" x="450" y="150" stroke="rgba(229, 184, 14, 1)"></use><use xlink:href="#SvgjsPath2943" x="450" y="210" stroke="#1c538e"></use><use xlink:href="#SvgjsPath2944" x="450" y="270" stroke="#1c538e"></use><use xlink:href="#SvgjsPath2946" x="450" y="330" stroke="#1c538e"></use><use xlink:href="#SvgjsPath2944" x="450" y="390" stroke="rgba(229, 184, 14, 1)"></use><use xlink:href="#SvgjsPath2942" x="450" y="450" stroke="rgba(229, 184, 14, 1)"></use><use xlink:href="#SvgjsPath2942" x="450" y="510" stroke="rgba(229, 184, 14, 1)"></use><use xlink:href="#SvgjsPath2943" x="450" y="570" stroke="#1c538e"></use><use xlink:href="#SvgjsPath2944" x="450" y="630" stroke="#1c538e"></use><use xlink:href="#SvgjsPath2942" x="450" y="690" stroke="#1c538e"></use><use xlink:href="#SvgjsPath2942" x="510" y="30" stroke="#1c538e"></use><use xlink:href="#SvgjsPath2943" x="510" y="90" stroke="rgba(229, 184, 14, 1)"></use><use xlink:href="#SvgjsPath2944" x="510" y="150" stroke="rgba(229, 184, 14, 1)"></use><use xlink:href="#SvgjsPath2945" x="510" y="210" stroke="#1c538e"></use><use xlink:href="#SvgjsPath2943" x="510" y="270" stroke="rgba(229, 184, 14, 1)"></use><use xlink:href="#SvgjsPath2945" x="510" y="330" stroke="rgba(229, 184, 14, 1)"></use><use xlink:href="#SvgjsPath2942" x="510" y="390" stroke="rgba(229, 184, 14, 1)"></use><use xlink:href="#SvgjsPath2944" x="510" y="450" stroke="#1c538e"></use><use xlink:href="#SvgjsPath2943" x="510" y="510" stroke="rgba(229, 184, 14, 1)"></use><use xlink:href="#SvgjsPath2946" x="510" y="570" stroke="rgba(229, 184, 14, 1)"></use><use xlink:href="#SvgjsPath2943" x="510" y="630" stroke="#1c538e"></use><use xlink:href="#SvgjsPath2943" x="510" y="690" stroke="#1c538e"></use><use xlink:href="#SvgjsPath2943" x="570" y="30" stroke="#1c538e"></use><use xlink:href="#SvgjsPath2944" x="570" y="90" stroke="rgba(229, 184, 14, 1)"></use><use xlink:href="#SvgjsPath2946" x="570" y="150" stroke="#1c538e"></use><use xlink:href="#SvgjsPath2943" x="570" y="210" stroke="#1c538e"></use><use xlink:href="#SvgjsPath2944" x="570" y="270" stroke="rgba(229, 184, 14, 1)"></use><use xlink:href="#SvgjsPath2944" x="570" y="330" stroke="rgba(229, 184, 14, 1)"></use><use xlink:href="#SvgjsPath2942" x="570" y="390" stroke="#1c538e"></use><use xlink:href="#SvgjsPath2944" x="570" y="450" stroke="rgba(229, 184, 14, 1)"></use><use xlink:href="#SvgjsPath2944" x="570" y="510" stroke="rgba(229, 184, 14, 1)"></use><use xlink:href="#SvgjsPath2944" x="570" y="570" stroke="rgba(229, 184, 14, 1)"></use><use xlink:href="#SvgjsPath2947" x="570" y="630" stroke="rgba(229, 184, 14, 1)" stroke-width="3"></use><use xlink:href="#SvgjsPath2946" x="570" y="690" stroke="#1c538e"></use><use xlink:href="#SvgjsPath2942" x="630" y="30" stroke="rgba(229, 184, 14, 1)"></use><use xlink:href="#SvgjsPath2942" x="630" y="90" stroke="#1c538e"></use><use xlink:href="#SvgjsPath2946" x="630" y="150" stroke="#1c538e"></use><use xlink:href="#SvgjsPath2943" x="630" y="210" stroke="#1c538e"></use><use xlink:href="#SvgjsPath2943" x="630" y="270" stroke="rgba(229, 184, 14, 1)"></use><use xlink:href="#SvgjsPath2943" x="630" y="330" stroke="rgba(229, 184, 14, 1)"></use><use xlink:href="#SvgjsPath2945" x="630" y="390" stroke="rgba(229, 184, 14, 1)"></use><use xlink:href="#SvgjsPath2942" x="630" y="450" stroke="#1c538e"></use><use xlink:href="#SvgjsPath2944" x="630" y="510" stroke="rgba(229, 184, 14, 1)"></use><use xlink:href="#SvgjsPath2942" x="630" y="570" stroke="#1c538e"></use><use xlink:href="#SvgjsPath2942" x="630" y="630" stroke="#1c538e"></use><use xlink:href="#SvgjsPath2945" x="630" y="690" stroke="rgba(229, 184, 14, 1)"></use><use xlink:href="#SvgjsPath2944" x="690" y="30" stroke="#1c538e"></use><use xlink:href="#SvgjsPath2943" x="690" y="90" stroke="#1c538e"></use><use xlink:href="#SvgjsPath2942" x="690" y="150" stroke="rgba(229, 184, 14, 1)"></use><use xlink:href="#SvgjsPath2942" x="690" y="210" stroke="rgba(229, 184, 14, 1)"></use><use xlink:href="#SvgjsPath2942" x="690" y="270" stroke="rgba(229, 184, 14, 1)"></use><use xlink:href="#SvgjsPath2944" x="690" y="330" stroke="#1c538e"></use><use xlink:href="#SvgjsPath2944" x="690" y="390" stroke="#1c538e"></use><use xlink:href="#SvgjsPath2947" x="690" y="450" stroke="#1c538e" stroke-width="3"></use><use xlink:href="#SvgjsPath2943" x="690" y="510" stroke="rgba(229, 184, 14, 1)"></use><use xlink:href="#SvgjsPath2944" x="690" y="570" stroke="rgba(229, 184, 14, 1)"></use><use xlink:href="#SvgjsPath2946" x="690" y="630" stroke="#1c538e"></use><use xlink:href="#SvgjsPath2942" x="690" y="690" stroke="rgba(229, 184, 14, 1)"></use></symbol></svg>